<?xml version="1.0" encoding="UTF-8" standalone="no"?>
<!-- Created with Inkscape (http://www.inkscape.org/) -->

<svg
   width="93.86042mm"
   height="93.860939mm"
   viewBox="0 0 93.86042 93.860939"
   version="1.1"
   id="svg5"
   inkscape:export-filename="logo2.svg"
   inkscape:export-xdpi="96"
   inkscape:export-ydpi="96"
   sodipodi:docname="logo.svg"
   xmlns:inkscape="http://www.inkscape.org/namespaces/inkscape"
   xmlns:sodipodi="http://sodipodi.sourceforge.net/DTD/sodipodi-0.dtd"
   xmlns="http://www.w3.org/2000/svg"
   xmlns:svg="http://www.w3.org/2000/svg">
  <sodipodi:namedview
     id="namedview7"
     pagecolor="#ffffff"
     bordercolor="#000000"
     borderopacity="0.25"
     inkscape:showpageshadow="2"
     inkscape:pageopacity="0.0"
     inkscape:pagecheckerboard="0"
     inkscape:deskcolor="#d1d1d1"
     inkscape:document-units="mm"
     showgrid="false" />
  <defs
     id="defs2" />
  <g
     id="layer1"
     transform="translate(-32.207336,-12.94908)">
    <path
       id="path1911"
       style="fill:#000000;fill-opacity:1;stroke:none;stroke-width:0.606776;stroke-opacity:1"
       d="m 44.491858,12.94908 c -6.805832,0 -12.284522,5.479205 -12.284522,12.285039 V 94.52498 c 0,6.80583 5.47869,12.28504 12.284522,12.28504 h 69.290862 c 6.80583,0 12.28504,-5.47921 12.28504,-12.28504 V 25.234119 c 0,-6.805834 -5.47921,-12.285039 -12.28504,-12.285039 z m 21.021973,4.742347 a 32.287434,32.287434 0 0 1 32.304488,32.265214 v 0.02222 A 32.287434,32.287434 0 0 1 65.536568,82.266296 32.287434,32.287434 0 0 1 33.243449,49.99023 32.287434,32.287434 0 0 1 65.513831,17.691427 Z m -1.952336,27.280505 v 10.365259 h 1.25212 v -5.555733 c 0.341961,-0.26203 0.699756,-0.477196 1.072803,-0.645956 0.373045,-0.16876 0.730326,-0.253214 1.072286,-0.253214 0.333075,0 0.604141,0.0468 0.81287,0.140043 0.20873,0.0888 0.368531,0.226377 0.479557,0.412894 0.106588,0.16876 0.179658,0.40443 0.219625,0.706417 0.03997,0.29755 0.05994,0.617155 0.05994,0.959115 v 4.236434 h 1.252636 v -4.829163 c 0,-0.910417 -0.211137,-1.607782 -0.633036,-2.091862 -0.421896,-0.484067 -1.034821,-0.726054 -1.838647,-0.726054 -0.439663,0 -0.867737,0.0908 -1.285193,0.272852 -0.417458,0.18208 -0.822034,0.435446 -1.212846,0.759643 v -3.750675 z m -29.190983,0.446484 v 1.172539 h 3.54397 v 8.746236 h 1.318782 v -8.746236 h 3.54397 v -1.172539 z m 37.9243,0 v 9.918775 h 2.504757 c 0.910411,0 1.643187,-0.0622 2.198315,-0.186552 0.559571,-0.12435 1.065787,-0.326375 1.51877,-0.606165 0.652833,-0.404127 1.174468,-0.972555 1.56528,-1.705322 0.39525,-0.732767 0.593245,-1.550003 0.593245,-2.45153 0,-0.963707 -0.188885,-1.796349 -0.566374,-2.498039 -0.377486,-0.701677 -0.903677,-1.263271 -1.578715,-1.685168 -0.395249,-0.24425 -0.879215,-0.435422 -1.452107,-0.573092 -0.568454,-0.14211 -1.337142,-0.212907 -2.305286,-0.212907 z m 1.318783,1.132231 h 1.2392 c 0.612864,0 1.139054,0.04451 1.578715,0.133325 0.439663,0.0844 0.85511,0.237873 1.245919,0.45992 0.537366,0.30643 0.941428,0.725911 1.212329,1.258838 0.270904,0.53292 0.406177,1.188078 0.406177,1.965255 0,0.772737 -0.124406,1.416508 -0.373104,1.931665 -0.244257,0.51516 -0.612922,0.930599 -1.105875,1.245919 -0.395253,0.25314 -0.830158,0.426078 -1.305347,0.519348 -0.47075,0.0933 -1.023745,0.140043 -1.658814,0.140043 h -1.2392 z m 12.184269,1.139465 c -1.083607,0 -1.958499,0.357279 -2.624646,1.072286 -0.66172,0.715 -0.992704,1.681168 -0.992704,2.898015 0,1.230164 0.346403,2.180391 1.039213,2.850988 0.692797,0.66616 1.656689,0.999423 2.891296,0.999423 0.484077,0 0.945778,-0.05991 1.385445,-0.179834 0.43966,-0.11991 0.870528,-0.268835 1.292428,-0.446485 v -1.365808 h -0.06666 c -0.21761,0.1954 -0.583998,0.395157 -1.099158,0.599447 -0.510717,0.19985 -1.019218,0.299723 -1.525488,0.299723 -0.38193,0 -0.732899,-0.05309 -1.052649,-0.15968 -0.31532,-0.10658 -0.588134,-0.26639 -0.819071,-0.479557 -0.23981,-0.21761 -0.428694,-0.494988 -0.566374,-0.832508 -0.13767,-0.341957 -0.206706,-0.74198 -0.206706,-1.19941 h 5.482353 v -0.679545 c 0,-1.079177 -0.272834,-1.911829 -0.819071,-2.498039 -0.54181,-0.586217 -1.314528,-0.879016 -2.318205,-0.879016 z m 19.964676,0 c 1.00368,0 1.77639,0.292799 2.3182,0.879016 0.54624,0.58621 0.81907,1.418862 0.81907,2.498039 l 5.2e-4,0.679545 h -5.48287 c 0,0.45743 0.069,0.857453 0.20671,1.19941 0.13767,0.33752 0.32655,0.614898 0.56637,0.832508 0.23093,0.213167 0.50375,0.372977 0.81907,0.479557 0.31976,0.10659 0.67072,0.15968 1.05265,0.15968 0.50627,0 1.01477,-0.09987 1.52549,-0.299723 0.51516,-0.20429 0.88155,-0.404047 1.09916,-0.599447 h 0.0667 v 1.365808 c -0.4219,0.17765 -0.85277,0.326575 -1.29243,0.446485 -0.43966,0.119927 -0.90136,0.179834 -1.38544,0.179834 -1.2346,0 -2.19849,-0.333263 -2.8913,-0.999423 -0.69279,-0.670597 -1.03921,-1.620824 -1.03921,-2.850988 0,-1.216847 0.33098,-2.183015 0.9927,-2.898015 0.66616,-0.715007 1.54104,-1.072286 2.62465,-1.072286 z m 16.04088,0 c 1.00368,0 1.77639,0.292799 2.3182,0.879016 0.54624,0.58621 0.81959,1.418862 0.81959,2.498039 v 0.679545 h -5.48235 c 0,0.45743 0.0685,0.857453 0.20619,1.19941 0.13767,0.33752 0.32655,0.614898 0.56637,0.832508 0.23093,0.213167 0.50428,0.372977 0.81959,0.479557 0.31976,0.10659 0.6702,0.15968 1.05213,0.15968 0.50628,0 1.01477,-0.09987 1.52549,-0.299723 0.51515,-0.20429 0.88155,-0.404047 1.09916,-0.599447 h 0.0667 v 1.365808 c -0.4219,0.17765 -0.85277,0.326575 -1.29243,0.446485 -0.43966,0.119927 -0.90136,0.179834 -1.38544,0.179834 -1.2346,0 -2.1985,-0.333263 -2.8913,-0.999423 -0.6928,-0.670597 -1.03921,-1.620824 -1.03921,-2.850988 0,-1.216847 0.33098,-2.183015 0.9927,-2.898015 0.66616,-0.715007 1.54104,-1.072286 2.62465,-1.072286 z m -70.998769,0.02636 c -0.448545,0 -0.903942,0.04001 -1.365808,0.11989 -0.461868,0.08 -0.815109,0.153521 -1.059367,0.220141 v 1.272274 h 0.06666 c 0.430779,-0.16432 0.848504,-0.288724 1.252636,-0.373104 0.404135,-0.0888 0.770521,-0.133325 1.099158,-0.133325 0.270904,0 0.530583,0.01773 0.779281,0.05323 0.248695,0.0355 0.462112,0.104565 0.639754,0.206705 0.186524,0.10659 0.328627,0.253247 0.42633,0.439767 0.102144,0.18652 0.152963,0.42167 0.152963,0.7059 v 0.19327 c -0.728331,0.0355 -1.409768,0.0886 -2.044837,0.15968 -0.635067,0.0711 -1.179475,0.206856 -1.632458,0.406693 -0.448545,0.19985 -0.794959,0.47495 -1.039213,0.82579 -0.239816,0.346397 -0.359668,0.801801 -0.359668,1.365808 0,0.688357 0.233389,1.254497 0.699699,1.698604 0.466307,0.4441 1.034725,0.666109 1.705322,0.666109 0.364163,0 0.681495,-0.0354 0.952396,-0.106453 0.270904,-0.0666 0.51061,-0.151077 0.719336,-0.253214 0.177642,-0.0799 0.360213,-0.186648 0.546737,-0.319878 0.190965,-0.137667 0.34166,-0.244377 0.452686,-0.319877 v 0.792717 h 1.245918 v -5.049304 c 0,-0.47963 -0.07359,-0.881412 -0.220141,-1.205612 C 53.675481,48.758096 53.462583,48.493847 53.182797,48.289567 52.898573,48.080837 52.56075,47.93418 52.169939,47.8498 51.783571,47.761 51.328688,47.716475 50.804648,47.716475 Z m 8.187097,0 c -0.475189,0 -0.906057,0.0622 -1.292428,0.186552 -0.381927,0.11991 -0.697496,0.284266 -0.946195,0.492993 -0.25758,0.21317 -0.450503,0.455157 -0.579293,0.726054 -0.12435,0.27091 -0.186552,0.55967 -0.186552,0.866097 0,0.48852 0.135273,0.901681 0.406177,1.239201 0.275344,0.33308 0.739332,0.585927 1.392163,0.759127 0.235375,0.0622 0.495573,0.119826 0.779797,0.173116 0.288668,0.0533 0.521541,0.100073 0.699183,0.140043 0.47963,0.10658 0.80379,0.23554 0.97255,0.38654 0.168759,0.15099 0.253215,0.372999 0.253215,0.666109 0,0.38193 -0.155249,0.661585 -0.466122,0.839225 -0.310873,0.17764 -0.74174,0.266651 -1.292427,0.266651 -0.444104,0 -0.908092,-0.0867 -1.392163,-0.259933 -0.484074,-0.17764 -0.924047,-0.415068 -1.3193,-0.712618 h -0.06666 v 1.405599 c 0.31087,0.15544 0.695474,0.299819 1.152901,0.433049 0.461866,0.12879 0.968083,0.192753 1.51877,0.192753 0.972585,0 1.738482,-0.217454 2.298051,-0.652674 0.564012,-0.435217 0.845943,-0.992255 0.845943,-1.671732 0,-0.54181 -0.157524,-0.977224 -0.472839,-1.305864 -0.315313,-0.324187 -0.76388,-0.553033 -1.345654,-0.686263 -0.190965,-0.0444 -0.430671,-0.093 -0.719336,-0.146244 -0.284227,-0.0533 -0.542146,-0.106907 -0.77308,-0.160197 -0.417455,-0.0977 -0.719364,-0.224392 -0.905888,-0.379822 -0.190962,-0.15544 -0.286287,-0.386034 -0.286287,-0.692464 0,-0.3464 0.157527,-0.606597 0.472839,-0.779797 0.315314,-0.17765 0.701676,-0.266134 1.159103,-0.266134 0.439661,0 0.888227,0.0822 1.345654,0.246497 0.457428,0.15988 0.846068,0.357351 1.16582,0.592728 h 0.06666 V 48.276128 C 61.174359,48.120688 60.794828,47.98946 60.337401,47.88287 59.884418,47.771853 59.435852,47.716472 58.991748,47.716472 Z m -16.31425,0.179834 v 7.44089 h 1.25212 v -5.282365 c 0.333078,-0.2709 0.679492,-0.490634 1.039213,-0.659391 0.359724,-0.1732 0.732941,-0.259933 1.119312,-0.259933 0.239817,0 0.446402,0.01087 0.6196,0.03307 0.177642,0.0178 0.359696,0.04913 0.54622,0.09353 h 0.06666 V 47.9764 c -0.195405,-0.0311 -0.342064,-0.05114 -0.439767,-0.05994 -0.0977,-0.0133 -0.255228,-0.02015 -0.472839,-0.02015 -0.395253,0 -0.783893,0.08451 -1.16582,0.253215 -0.377489,0.16432 -0.815185,0.446243 -1.312582,0.845943 V 47.89631 Z m 47.330445,0 2.991032,7.44089 h 1.258837 l 3.011186,-7.44089 h -1.312581 l -2.284615,5.922119 -2.304769,-5.922119 z m 19.984827,0 h 1.57871 l 2.09807,2.811198 2.1053,-2.811198 h 1.46554 l -2.92437,3.663859 2.92437,3.777031 h -1.57872 l -2.11201,-2.857707 -2.12494,2.857707 h -1.45882 l 2.90473,-3.710368 z m -24.261569,0.826306 c 0.66616,0 1.161498,0.179775 1.485698,0.539502 0.328607,0.35972 0.494724,0.868209 0.499194,1.525489 h -4.263306 c 0.0533,-0.58622 0.27758,-1.077002 0.672827,-1.472262 0.3997,-0.39525 0.93499,-0.592729 1.605587,-0.592729 z m 19.964669,0 c -0.6706,0 -1.20588,0.197479 -1.60558,0.592729 -0.39525,0.39526 -0.61953,0.886042 -0.67283,1.472262 h 4.26331 c -0.005,-0.65728 -0.1708,-1.165769 -0.4992,-1.525489 -0.3242,-0.359727 -0.81955,-0.539502 -1.4857,-0.539502 z m 16.04089,0 c -0.67059,0 -1.20541,0.197479 -1.60507,0.592729 -0.39525,0.39526 -0.61953,0.886042 -0.67283,1.472262 h 4.2633 c -0.005,-0.65728 -0.1713,-1.165769 -0.49971,-1.525489 -0.32419,-0.359727 -0.81956,-0.539502 -1.48569,-0.539502 z m -68.940499,2.710946 v 2.071708 c -0.310873,0.23982 -0.648177,0.446401 -1.012342,0.619601 -0.364163,0.168757 -0.766465,0.253214 -1.206128,0.253214 -0.528481,0 -0.921158,-0.106707 -1.178739,-0.319877 -0.25758,-0.21761 -0.38654,-0.539495 -0.38654,-0.965832 0,-0.37748 0.111261,-0.672565 0.333313,-0.885735 0.222052,-0.217607 0.512577,-0.377407 0.872298,-0.479557 0.301991,-0.0844 0.710606,-0.14885 1.225765,-0.19327 0.519602,-0.0444 0.970443,-0.078 1.352373,-0.100252 z M 98.16145,53.43912 h 1.592151 v 1.898076 H 98.16145 Z m 5.35161,40.0389 c 0.12838,0 0.24331,0.0059 0.3452,0.01809 0.10392,0.01223 0.19862,0.02658 0.28422,0.04289 v 0.526066 h -0.0305 c -0.0632,-0.01834 -0.14564,-0.03695 -0.24753,-0.05529 -0.10189,-0.02038 -0.19132,-0.03049 -0.26872,-0.03049 -0.24657,0 -0.42638,0.05481 -0.53846,0.164847 -0.11006,0.108001 -0.16485,0.30486 -0.16485,0.590145 v 0.115755 h 1.03611 v 0.483175 h -1.01803 v 2.931604 h -0.57412 v -2.931604 h -0.38861 v -0.483175 h 0.38861 V 94.73737 c 0,-0.405513 0.10057,-0.716241 0.30231,-0.932243 0.20173,-0.218039 0.4933,-0.327112 0.87436,-0.327112 z m -31.712791,0.03049 h 0.574641 v 3.05046 l 1.659847,-1.70894 h 0.724504 l -1.586466,1.577165 1.702221,1.837614 H 74.11744 l -1.369426,-1.494999 -0.373104,0.3545 v 1.140499 h -0.574641 z m 12.483475,0 h 0.574642 v 1.699121 c 0.160982,-0.132454 0.331787,-0.240461 0.513147,-0.324011 0.18136,-0.08558 0.385142,-0.128157 0.611332,-0.128157 0.403476,0 0.721645,0.155349 0.953947,0.465087 0.234342,0.309739 0.3514,0.746057 0.3514,1.310515 0,0.285285 -0.04045,0.542268 -0.121956,0.770495 -0.07947,0.228229 -0.187483,0.419773 -0.324012,0.574642 -0.14468,0.160983 -0.303764,0.282292 -0.476973,0.363802 -0.173209,0.07948 -0.363691,0.119373 -0.571541,0.119373 -0.193587,0 -0.362781,-0.02341 -0.507463,-0.07028 -0.14468,-0.04483 -0.287277,-0.106021 -0.427881,-0.183451 l -0.03669,0.159163 h -0.537952 z m -15.616101,0.204639 h 0.806669 l 1.656747,4.55166 H 70.48562 l -0.445967,-1.268656 h -1.968356 l -0.446484,1.268656 H 67.01038 Z m 0.38809,0.52865 -0.801501,2.234489 h 1.598869 z m 28.267525,0.513664 c 0.460533,0 0.814896,0.13461 1.063501,0.403592 0.250643,0.268984 0.376205,0.65101 0.376205,1.146184 v 0.311609 h -2.515609 c 0,0.209888 0.0314,0.393447 0.09457,0.550354 0.06317,0.154868 0.149894,0.282039 0.259932,0.381888 0.105963,0.09781 0.231524,0.171232 0.376205,0.220142 0.146718,0.04891 0.307411,0.07338 0.482658,0.07338 0.232304,0 0.465358,-0.04576 0.699699,-0.13746 0.236379,-0.09374 0.405029,-0.185258 0.504878,-0.274918 h 0.03049 v 0.626318 c -0.193586,0.08151 -0.391508,0.149619 -0.593246,0.204639 -0.201738,0.05501 -0.413505,0.08268 -0.63562,0.08268 -0.566495,0 -1.008646,-0.152707 -1.326534,-0.45837 -0.31789,-0.307701 -0.476974,-0.74399 -0.476974,-1.308447 0,-0.558344 0.152162,-1.001557 0.455787,-1.329635 0.305663,-0.328078 0.70685,-0.491959 1.20406,-0.491959 z m 15.225432,0 c 0.36883,0 0.64977,0.111197 0.84336,0.333313 0.19356,0.222114 0.29042,0.541891 0.29042,0.959631 v 2.216402 h -0.57465 v -1.944067 c 0,-0.156907 -0.009,-0.303754 -0.0274,-0.440284 -0.0183,-0.138566 -0.0524,-0.246571 -0.10129,-0.324011 -0.0509,-0.08559 -0.12434,-0.148902 -0.22014,-0.189652 -0.0958,-0.04279 -0.21976,-0.06408 -0.37259,-0.06408 -0.1569,0 -0.3213,0.03883 -0.49247,0.116272 -0.17118,0.07743 -0.33505,0.175878 -0.49196,0.296106 v 2.549715 h -0.57465 v -3.414779 h 0.57465 v 0.379305 c 0.17933,-0.148755 0.365,-0.264749 0.55655,-0.348299 0.19155,-0.08355 0.38842,-0.125573 0.59015,-0.125573 z m -35.900655,0.0124 c 0.240454,0 0.449551,0.02023 0.626835,0.06098 0.179322,0.03872 0.334154,0.105758 0.464571,0.201538 0.128378,0.09374 0.226282,0.215046 0.293522,0.363802 0.06725,0.148756 0.100769,0.333378 0.100769,0.553455 v 2.317171 h -0.571541 v -0.363802 c -0.05094,0.03464 -0.12012,0.08359 -0.20774,0.146761 -0.08558,0.06113 -0.169637,0.109564 -0.251147,0.146244 -0.09577,0.04686 -0.205393,0.0857 -0.329696,0.116272 -0.124301,0.03261 -0.270085,0.04909 -0.437182,0.04909 -0.3077,0 -0.568417,-0.102149 -0.782381,-0.305925 -0.213963,-0.203774 -0.320911,-0.463427 -0.320911,-0.77928 0,-0.258794 0.05481,-0.467375 0.164848,-0.626319 0.112076,-0.160982 0.27116,-0.287605 0.476973,-0.379305 0.207851,-0.09169 0.457393,-0.153951 0.748792,-0.186551 0.291399,-0.03261 0.604252,-0.05708 0.938444,-0.07338 v -0.08837 c 0,-0.130416 -0.02393,-0.238421 -0.0708,-0.324011 -0.04483,-0.08559 -0.109747,-0.153145 -0.195337,-0.202055 -0.08151,-0.04687 -0.179408,-0.07827 -0.293522,-0.09457 -0.114114,-0.01631 -0.233298,-0.0248 -0.357601,-0.0248 -0.150794,0 -0.318409,0.02075 -0.503845,0.06149 -0.185435,0.03872 -0.377497,0.09565 -0.575159,0.171049 h -0.03049 v -0.583944 c 0.112076,-0.03057 0.274349,-0.06409 0.486275,-0.100769 0.211926,-0.03667 0.420505,-0.05478 0.626319,-0.05478 z m 12.7031,0 c 0.240455,0 0.449552,0.02023 0.626835,0.06098 0.179323,0.03872 0.334156,0.105758 0.464572,0.201538 0.128378,0.09374 0.226272,0.215046 0.293522,0.363802 0.06725,0.148756 0.100769,0.333378 0.100769,0.553455 v 2.317171 h -0.571542 v -0.363802 c -0.05094,0.03464 -0.120119,0.08359 -0.207739,0.146761 -0.08558,0.06113 -0.169121,0.109564 -0.250631,0.146244 -0.09577,0.04686 -0.205909,0.0857 -0.330212,0.116272 -0.124304,0.03261 -0.270087,0.04909 -0.437183,0.04909 -0.3077,0 -0.568417,-0.102149 -0.782381,-0.305925 -0.213964,-0.203774 -0.32091,-0.463427 -0.32091,-0.77928 0,-0.258794 0.05533,-0.467375 0.165364,-0.626319 0.112077,-0.160982 0.270643,-0.287605 0.476457,-0.379305 0.20785,-0.09169 0.457393,-0.153951 0.748791,-0.186551 0.291399,-0.03261 0.604253,-0.05708 0.938444,-0.07338 v -0.08837 c 0,-0.130416 -0.02341,-0.238421 -0.07028,-0.324011 -0.04483,-0.08559 -0.110263,-0.153145 -0.195853,-0.202055 -0.08151,-0.04687 -0.178892,-0.07827 -0.293006,-0.09457 -0.114115,-0.01631 -0.233298,-0.0248 -0.357601,-0.0248 -0.150793,0 -0.318926,0.02075 -0.504362,0.06149 -0.185435,0.03872 -0.37698,0.09565 -0.574641,0.171049 h -0.03049 v -0.583944 c 0.112077,-0.03057 0.273831,-0.06409 0.485759,-0.100769 0.211925,-0.03667 0.420505,-0.05478 0.626318,-0.05478 z m 18.884115,0 c 0.24046,0 0.44956,0.02023 0.62684,0.06098 0.17933,0.03872 0.33415,0.105758 0.46457,0.201538 0.12838,0.09374 0.22571,0.215046 0.29301,0.363802 0.0672,0.148756 0.10128,0.333378 0.10128,0.553455 v 2.317171 h -0.57154 v -0.363802 c -0.0509,0.03464 -0.12014,0.08359 -0.20774,0.146761 -0.0856,0.06113 -0.16913,0.109564 -0.25063,0.146244 -0.0958,0.04686 -0.20642,0.0857 -0.33073,0.116272 -0.1243,0.03261 -0.26958,0.04909 -0.43666,0.04909 -0.30771,0 -0.56894,-0.102149 -0.7829,-0.305925 -0.21396,-0.203774 -0.32091,-0.463427 -0.32091,-0.77928 0,-0.258794 0.0553,-0.467375 0.16536,-0.626319 0.11208,-0.160982 0.27116,-0.287605 0.47697,-0.379305 0.20785,-0.09169 0.4574,-0.153951 0.7488,-0.186551 0.2914,-0.03261 0.60425,-0.05708 0.93844,-0.07338 v -0.08837 c 0,-0.130416 -0.0234,-0.238421 -0.0703,-0.324011 -0.0448,-0.08559 -0.11025,-0.153145 -0.19585,-0.202055 -0.0815,-0.04687 -0.1789,-0.07827 -0.29301,-0.09457 -0.11411,-0.01631 -0.23381,-0.0248 -0.35812,-0.0248 -0.15079,0 -0.31893,0.02075 -0.50436,0.06149 -0.18544,0.03872 -0.37698,0.09565 -0.57464,0.171049 h -0.0305 v -0.583944 c 0.11207,-0.03057 0.27435,-0.06409 0.48628,-0.100769 0.21193,-0.03667 0.4205,-0.05478 0.62631,-0.05478 z m -28.502649,0.08217 h 0.730188 v 0.871265 h -0.730188 z m 12.186853,0 h 0.574125 v 1.944068 c 0,0.173209 0.008,0.322181 0.02429,0.446484 0.0163,0.122265 0.05089,0.227606 0.10387,0.315226 0.05502,0.08966 0.126837,0.154061 0.214457,0.194821 0.08762,0.04075 0.214794,0.06149 0.381889,0.06149 0.148756,0 0.311028,-0.03832 0.486275,-0.115756 0.177285,-0.07743 0.342229,-0.176395 0.49506,-0.296622 v -2.549716 h 0.574642 v 3.414779 H 94.19942 v -0.379305 c -0.193587,0.152831 -0.378754,0.26989 -0.556038,0.3514 -0.177285,0.08151 -0.373082,0.122473 -0.587045,0.122473 -0.358644,0 -0.637974,-0.109073 -0.837675,-0.327112 -0.1997,-0.220078 -0.299206,-0.54198 -0.299206,-0.965832 z m 7.714775,0 h 0.574641 v 0.504362 c 0.22823,-0.183397 0.42882,-0.31269 0.60203,-0.38809 0.17525,-0.07744 0.35349,-0.116272 0.53485,-0.116272 0.0999,0 0.17224,0.0032 0.21704,0.0093 0.0448,0.0041 0.11236,0.01315 0.20206,0.02739 v 0.590145 h -0.031 c -0.0856,-0.02038 -0.16913,-0.03469 -0.25063,-0.04289 -0.0795,-0.01014 -0.17419,-0.01499 -0.28422,-0.01499 -0.17729,0 -0.3486,0.03939 -0.51366,0.118856 -0.16506,0.07744 -0.32363,0.178521 -0.47646,0.302824 v 2.424141 h -0.574641 z m 4.872051,0 h 0.57464 v 0.504362 c 0.22823,-0.183397 0.42883,-0.31269 0.60203,-0.38809 0.17525,-0.07744 0.35401,-0.116272 0.53537,-0.116272 0.0998,0 0.17173,0.0032 0.21653,0.0093 0.0448,0.0041 0.11235,0.01315 0.20205,0.02739 v 0.590145 h -0.0305 c -0.0856,-0.02038 -0.16913,-0.03469 -0.25063,-0.04289 -0.0795,-0.01014 -0.17418,-0.01499 -0.28422,-0.01499 -0.17729,0 -0.3486,0.03939 -0.51366,0.118856 -0.16506,0.07744 -0.32415,0.178521 -0.47698,0.302824 v 2.424141 h -0.57464 z m 10.04383,0 h 2.66237 v 0.409795 l -1.99884,2.518709 h 2.05104 v 0.486275 h -2.75694 v -0.42478 l 1.98954,-2.509925 h -1.94717 z m -17.257341,0.379305 c -0.3077,0 -0.553508,0.09046 -0.736906,0.271818 -0.181359,0.181359 -0.284058,0.406944 -0.308508,0.675928 h 1.955953 c -0.002,-0.301588 -0.07812,-0.535158 -0.228926,-0.700215 -0.148756,-0.165056 -0.375949,-0.247531 -0.681613,-0.247531 z m -11.450463,0.07338 c -0.167097,0 -0.335774,0.03671 -0.506946,0.110071 -0.171171,0.07132 -0.330256,0.163905 -0.476974,0.278019 v 1.955953 c 0.16302,0.07335 0.302428,0.124949 0.418579,0.153479 0.11819,0.02853 0.251737,0.04238 0.400493,0.04238 0.317888,0 0.566369,-0.103758 0.745691,-0.311609 0.181358,-0.209889 0.272334,-0.538169 0.272334,-0.984436 0,-0.407551 -0.06756,-0.716153 -0.202054,-0.926042 -0.134492,-0.211926 -0.351574,-0.31781 -0.651123,-0.31781 z m -8.280115,1.170471 c -0.175247,0.01019 -0.382216,0.02561 -0.620634,0.04599 -0.236379,0.02038 -0.423673,0.05016 -0.56224,0.08888 -0.165058,0.04687 -0.298605,0.120291 -0.400492,0.220141 -0.101885,0.09781 -0.152962,0.232967 -0.152962,0.406177 0,0.195624 0.05906,0.343534 0.17725,0.443384 0.118189,0.09782 0.298559,0.146761 0.541052,0.146761 0.201738,0 0.38636,-0.03884 0.553455,-0.116272 0.167095,-0.07947 0.321928,-0.174182 0.464571,-0.28422 z m 12.7031,0 c -0.175247,0.01019 -0.381701,0.02561 -0.620117,0.04599 -0.236381,0.02038 -0.424189,0.05016 -0.562756,0.08888 -0.165058,0.04687 -0.298606,0.120291 -0.400493,0.220141 -0.101884,0.09781 -0.152445,0.232967 -0.152445,0.406177 0,0.195624 0.05906,0.343534 0.17725,0.443384 0.11819,0.09782 0.298043,0.146761 0.540536,0.146761 0.201736,0 0.386358,-0.03884 0.553454,-0.116272 0.167096,-0.07947 0.321928,-0.174182 0.464571,-0.28422 z m 18.884119,0 c -0.17525,0.01019 -0.38221,0.02561 -0.62063,0.04599 -0.23638,0.02038 -0.42367,0.05016 -0.56224,0.08888 -0.16506,0.04687 -0.29861,0.120291 -0.4005,0.220141 -0.10191,0.09781 -0.15296,0.232967 -0.15296,0.406177 0,0.195624 0.0591,0.343534 0.17725,0.443384 0.11818,0.09782 0.29856,0.146761 0.54105,0.146761 0.20174,0 0.38636,-0.03884 0.55346,-0.116272 0.16709,-0.07947 0.32192,-0.174182 0.46457,-0.28422 z m -29.416809,0.920357 h 0.730188 v 0.871265 h -0.730188 z" />
  </g>
</svg>
