<?xml version="1.0" encoding="UTF-8" standalone="no" ?>
<!DOCTYPE svg PUBLIC "-//W3C//DTD SVG 1.1//EN" "http://www.w3.org/Graphics/SVG/1.1/DTD/svg11.dtd">
<svg xmlns="http://www.w3.org/2000/svg" xmlns:xlink="http://www.w3.org/1999/xlink" version="1.1" width="1080" height="1080" viewBox="0 0 1080 1080" xml:space="preserve">
<desc>Created with Fabric.js 5.2.4</desc>
<defs>
</defs>
<g transform="matrix(1 0 0 1 540 540)" id="a95b9f6f-14d0-4c8b-83fb-97c8c3c8b4aa"  >
<rect style="stroke: none; stroke-width: 1; stroke-dasharray: none; stroke-linecap: butt; stroke-dashoffset: 0; stroke-linejoin: miter; stroke-miterlimit: 4; fill: rgb(255,255,255); fill-rule: nonzero; opacity: 1; visibility: hidden;" vector-effect="non-scaling-stroke"  x="-540" y="-540" rx="0" ry="0" width="1080" height="1080" />
</g>
<g transform="matrix(1 0 0 1 540 540)" id="118ef163-ec9e-4f09-a8ad-f31bde40188e"  >
</g>
<g transform="matrix(11.27 0 0 11.27 539.53 539.53)" id="path1911"  >
<path style="stroke: rgb(0,0,0); stroke-width: 0; stroke-dasharray: none; stroke-linecap: butt; stroke-dashoffset: 0; stroke-linejoin: miter; stroke-miterlimit: 4; fill: rgb(0,0,0); fill-rule: nonzero; opacity: 1;" vector-effect="non-scaling-stroke"  transform=" translate(-79.14, -59.88)" d="M 44.491858 12.94908 C 37.686026 12.94908 32.207336 18.428285000000002 32.207336 25.234119 L 32.207336 94.52498 C 32.207336 101.33081 37.686026 106.81002 44.491858 106.81002 L 113.78272000000001 106.81002 C 120.58855000000001 106.81002 126.06776 101.33081 126.06776 94.52498 L 126.06776 25.234119 C 126.06776 18.428285 120.58855000000001 12.94908 113.78272000000001 12.94908 z M 65.513831 17.691427 C 83.34367324951558 17.682005178469375 97.80605110735122 32.1268004815842 97.818319 49.95664099999999 L 97.818319 49.978861 C 97.8183198284015 67.80849968607589 83.36620640989051 82.26315775629028 65.53656800000005 82.26629599999998 C 47.70692919935702 82.26943645324394 33.2497263154147 67.81986797218417 33.243449 49.99023 C 33.237168369284205 32.160590465886216 47.684192845645626 17.70084228260857 65.51383099999998 17.691427000000004 Z M 63.561494999999994 44.971932 L 63.561494999999994 55.337191000000004 L 64.813615 55.337191000000004 L 64.813615 49.781458 C 65.155576 49.519428 65.51337099999999 49.304262 65.88641799999999 49.135502 C 66.259463 48.966742 66.616744 48.882288 66.958704 48.882288 C 67.29177899999999 48.882288 67.562845 48.929088 67.771574 49.022331 C 67.980304 49.111131 68.140105 49.248708 68.251131 49.435225 C 68.357719 49.603985 68.430789 49.839655 68.470756 50.141642000000004 C 68.51072599999999 50.439192000000006 68.53069599999999 50.758797 68.53069599999999 51.100757 L 68.53069599999999 55.337191000000004 L 69.78333199999999 55.337191000000004 L 69.78333199999999 50.508028 C 69.78333199999999 49.597611 69.572195 48.900246 69.15029599999998 48.416166000000004 C 68.72839999999998 47.932099 68.11547499999999 47.690112000000006 67.31164899999999 47.690112000000006 C 66.87198599999999 47.690112000000006 66.44391199999998 47.78091200000001 66.02645599999998 47.96296400000001 C 65.60899799999999 48.145044000000006 65.20442199999998 48.398410000000005 64.81360999999998 48.722607 L 64.81360999999998 44.971932 z M 34.37051199999999 45.418416 L 34.37051199999999 46.590955 L 37.91448199999999 46.590955 L 37.91448199999999 55.337191000000004 L 39.23326399999999 55.337191000000004 L 39.23326399999999 46.59095500000001 L 42.77723399999999 46.59095500000001 L 42.77723399999999 45.41841600000001 z M 72.294812 45.418416 L 72.294812 55.337191000000004 L 74.79956899999999 55.337191000000004 C 75.70997999999999 55.337191000000004 76.44275599999999 55.27499100000001 76.99788399999998 55.150639000000005 C 77.55745499999999 55.026289000000006 78.06367099999999 54.82426400000001 78.51665399999999 54.54447400000001 C 79.16948699999999 54.140347000000006 79.691122 53.57191900000001 80.08193399999999 52.839152000000006 C 80.477184 52.106385 80.67517899999999 51.28914900000001 80.67517899999999 50.38762200000001 C 80.67517899999999 49.42391500000001 80.48629399999999 48.59127300000001 80.10880499999999 47.88958300000001 C 79.73131899999998 47.18790600000001 79.20512799999999 46.626312000000006 78.53008999999999 46.20441500000001 C 78.13484099999998 45.96016500000001 77.65087499999998 45.76899300000001 77.07798299999999 45.63132300000001 C 76.50952899999999 45.48921300000001 75.74084099999999 45.41841600000001 74.772697 45.41841600000001 z M 73.61359499999999 46.550647 L 74.85279499999999 46.550647 C 75.46565899999999 46.550647 75.99184899999999 46.595157 76.43150999999999 46.683972 C 76.87117299999998 46.768372 77.28661999999998 46.921845 77.67742899999999 47.143891999999994 C 78.214795 47.45032199999999 78.61885699999999 47.86980299999999 78.88975799999999 48.40272999999999 C 79.16066199999999 48.93564999999999 79.29593499999999 49.59080799999999 79.29593499999999 50.36798499999999 C 79.29593499999999 51.14072199999999 79.17152899999999 51.78449299999999 78.92283099999999 52.29964999999999 C 78.67857399999998 52.814809999999994 78.30990899999999 53.23024899999999 77.81695599999999 53.54556899999999 C 77.421703 53.798708999999995 76.986798 53.97164699999999 76.51160899999999 54.064916999999994 C 76.040859 54.15821699999999 75.48786399999999 54.20495999999999 74.85279499999999 54.20495999999999 L 73.61359499999999 54.20495999999999 z M 85.79786399999999 47.690112 C 84.71425699999999 47.690112 83.83936499999999 48.047391 83.17321799999999 48.762398 C 82.51149799999999 49.477398 82.18051399999999 50.443566 82.18051399999999 51.660413 C 82.18051399999999 52.890577 82.52691699999998 53.840804 83.21972699999999 54.511401 C 83.91252399999999 55.177561 84.87641599999999 55.510824 86.11102299999999 55.510824 C 86.59509999999999 55.510824 87.056801 55.450914 87.496468 55.33099 C 87.936128 55.21108 88.36699599999999 55.062155 88.788896 54.884505 L 88.788896 53.518696999999996 L 88.722236 53.518696999999996 C 88.504626 53.714096999999995 88.138238 53.91385399999999 87.62307799999999 54.118143999999994 C 87.11236099999999 54.31799399999999 86.60386 54.417866999999994 86.09759 54.417866999999994 C 85.71566 54.417866999999994 85.364691 54.364777 85.044941 54.25818699999999 C 84.729621 54.15160699999999 84.456807 53.99179699999999 84.22587 53.77862999999999 C 83.98606 53.56101999999999 83.79717600000001 53.28364199999999 83.659496 52.946121999999995 C 83.521826 52.604164999999995 83.45279000000001 52.204142 83.45279000000001 51.746711999999995 L 88.93514300000001 51.746711999999995 L 88.93514300000001 51.067167 C 88.93514300000001 49.987989999999996 88.66230900000001 49.155338 88.11607200000002 48.569128 C 87.57426200000002 47.982911 86.80154400000002 47.690112 85.79786700000001 47.690112 z M 105.76253999999999 47.690112 C 106.76621999999999 47.690112 107.53893 47.982911 108.08073999999999 48.569128 C 108.62697999999999 49.155338 108.89980999999999 49.987989999999996 108.89980999999999 51.067167 L 108.90032999999998 51.746711999999995 L 103.41745999999998 51.746711999999995 C 103.41745999999998 52.204142 103.48645999999998 52.604164999999995 103.62416999999998 52.946121999999995 C 103.76183999999998 53.28364199999999 103.95071999999998 53.56101999999999 104.19053999999998 53.77862999999999 C 104.42146999999999 53.99179699999999 104.69428999999998 54.15160699999999 105.00960999999998 54.25818699999999 C 105.32936999999998 54.36477699999999 105.68032999999998 54.417866999999994 106.06225999999998 54.417866999999994 C 106.56852999999998 54.417866999999994 107.07702999999998 54.31799699999999 107.58774999999999 54.118143999999994 C 108.10290999999998 53.91385399999999 108.46929999999999 53.714096999999995 108.68690999999998 53.518696999999996 L 108.75360999999998 53.518696999999996 L 108.75360999999998 54.884505 C 108.33170999999999 55.062155 107.90083999999997 55.211079999999995 107.46117999999998 55.33099 C 107.02151999999998 55.450917 106.55981999999999 55.510824 106.07573999999998 55.510824 C 104.84113999999998 55.510824 103.87724999999998 55.177561 103.18443999999998 54.511401 C 102.49164999999998 53.840804 102.14522999999998 52.890577 102.14522999999998 51.660413 C 102.14522999999998 50.443566 102.47620999999998 49.477398 103.13792999999998 48.762398 C 103.80408999999999 48.047391 104.67896999999998 47.690112 105.76257999999999 47.690112 z M 121.80341999999999 47.690112 C 122.80709999999999 47.690112 123.57981 47.982911 124.12162 48.569128 C 124.66785999999999 49.155338 124.94121 49.987989999999996 124.94121 51.067167 L 124.94121 51.746711999999995 L 119.45886 51.746711999999995 C 119.45886 52.204142 119.52736 52.604164999999995 119.66505000000001 52.946121999999995 C 119.80272000000001 53.28364199999999 119.9916 53.56101999999999 120.23142000000001 53.77862999999999 C 120.46235000000001 53.99179699999999 120.73570000000001 54.15160699999999 121.05101000000002 54.25818699999999 C 121.37077000000002 54.36477699999999 121.72121000000001 54.417866999999994 122.10314000000002 54.417866999999994 C 122.60942000000003 54.417866999999994 123.11791000000002 54.31799699999999 123.62863000000003 54.118143999999994 C 124.14378000000004 53.91385399999999 124.51018000000003 53.714096999999995 124.72779000000003 53.518696999999996 L 124.79449000000002 53.518696999999996 L 124.79449000000002 54.884505 C 124.37259000000003 55.062155 123.94172000000002 55.211079999999995 123.50206000000003 55.33099 C 123.06240000000003 55.450917 122.60070000000003 55.510824 122.11662000000003 55.510824 C 120.88202000000003 55.510824 119.91812000000003 55.177561 119.22532000000002 54.511401 C 118.53252000000002 53.840804 118.18611000000003 52.890577 118.18611000000003 51.660413 C 118.18611000000003 50.443566 118.51709000000002 49.477398 119.17881000000003 48.762398 C 119.84497000000003 48.047391 120.71985000000002 47.690112 121.80346000000003 47.690112 z M 50.80465099999999 47.716471999999996 C 50.35610599999999 47.716471999999996 49.90070899999999 47.756482 49.43884299999999 47.836361999999994 C 48.97697499999999 47.91636199999999 48.62373399999999 47.98988299999999 48.37947599999999 48.05650299999999 L 48.37947599999999 49.328776999999995 L 48.44613599999999 49.328776999999995 C 48.87691499999999 49.164457 49.29463999999999 49.04005299999999 49.69877199999999 48.955673 C 50.10290699999999 48.866873 50.46929299999999 48.822348 50.797929999999994 48.822348 C 51.068833999999995 48.822348 51.328512999999994 48.840078 51.57721099999999 48.875578 C 51.82590599999999 48.911077999999996 52.03932299999999 48.980143 52.216964999999995 49.082283 C 52.40348899999999 49.188872999999994 52.54559199999999 49.33553 52.643294999999995 49.52205 C 52.745439 49.70857 52.796257999999995 49.94372 52.796257999999995 50.22795 L 52.796257999999995 50.42122 C 52.067927 50.45672 51.386489999999995 50.50982 50.75142099999999 50.5809 C 50.116353999999994 50.652 49.571946 50.787756 49.118962999999994 50.987593 C 48.67041799999999 51.187442999999995 48.324003999999995 51.462543 48.07975 51.813382999999995 C 47.839934 52.15978 47.720082 52.61518399999999 47.720082 53.179190999999996 C 47.720082 53.867548 47.953471 54.433688 48.419781 54.877795 C 48.886088 55.321895 49.454506 55.543904 50.125103 55.543904 C 50.489266 55.543904 50.806598 55.508503999999995 51.077499 55.437450999999996 C 51.348403000000005 55.370850999999995 51.588109 55.286373999999995 51.796835 55.184236999999996 C 51.974477 55.104336999999994 52.157048 54.997589 52.343572 54.86435899999999 C 52.534537 54.72669199999999 52.685232 54.61998199999999 52.796258 54.544481999999995 L 52.796258 55.337199 L 54.042176000000005 55.337199 L 54.042176000000005 50.287895 C 54.042176000000005 49.808265 53.968586 49.406483 53.82203500000001 49.082283 C 53.675481 48.758096 53.462583 48.493847 53.182797 48.289567 C 52.898573 48.080837 52.56075 47.93418 52.169939 47.8498 C 51.783571 47.761 51.328688 47.716475 50.804648 47.716475 Z M 58.991747999999994 47.716471999999996 C 58.516558999999994 47.716471999999996 58.085691 47.77867199999999 57.69931999999999 47.903023999999995 C 57.317392999999996 48.02293399999999 57.00182399999999 48.18729 56.75312499999999 48.39601699999999 C 56.49554499999999 48.60918699999999 56.30262199999999 48.85117399999999 56.17383199999999 49.12207099999999 C 56.04948199999999 49.39298099999999 55.98727999999999 49.68174099999999 55.98727999999999 49.988167999999995 C 55.98727999999999 50.476687999999996 56.12255299999999 50.889849 56.39345699999999 51.227368999999996 C 56.66880099999999 51.560449 57.13278899999999 51.813295999999994 57.785619999999994 51.986495999999995 C 58.02099499999999 52.04869599999999 58.281192999999995 52.106322 58.565417 52.159611999999996 C 58.854085 52.212911999999996 59.086957999999996 52.259685 59.264599999999994 52.299654999999994 C 59.744229999999995 52.406234999999995 60.068389999999994 52.535194999999995 60.23714999999999 52.68619499999999 C 60.405908999999994 52.83718499999999 60.49036499999999 53.05919399999999 60.49036499999999 53.35230399999999 C 60.49036499999999 53.73423399999999 60.33511599999999 54.01388899999999 60.02424299999999 54.19152899999999 C 59.71336999999999 54.369168999999985 59.28250299999999 54.45817999999999 58.731815999999995 54.45817999999999 C 58.28771199999999 54.45817999999999 57.82372399999999 54.37147999999999 57.339653 54.198246999999995 C 56.855579 54.020607 56.415606 53.783179 56.020353 53.485628999999996 L 55.953693 53.485628999999996 L 55.953693 54.891228 C 56.264563 55.046668 56.649167 55.191047 57.106594 55.324276999999995 C 57.56846 55.453067 58.074677 55.51703 58.625364000000005 55.51703 C 59.59794900000001 55.51703 60.363846 55.299576 60.923415000000006 54.864356 C 61.487427000000004 54.429139 61.769358000000004 53.872101 61.769358000000004 53.192624 C 61.769358000000004 52.650814000000004 61.611834 52.2154 61.296519 51.88676 C 60.981206 51.562573 60.532639 51.333727 59.950865 51.200497000000006 C 59.7599 51.156097 59.520194000000004 51.107497 59.231529 51.054253 C 58.947302 51.000953 58.689383 50.947346 58.458449 50.894056000000006 C 58.040994000000005 50.796356 57.739085 50.669664000000004 57.552561000000004 50.51423400000001 C 57.361599000000005 50.35879400000001 57.266274 50.12820000000001 57.266274 49.82177000000001 C 57.266274 49.475370000000005 57.423801000000005 49.21517300000001 57.739113 49.041973000000006 C 58.054427000000004 48.864323000000006 58.440789 48.775839000000005 58.898216000000005 48.775839000000005 C 59.337877000000006 48.775839000000005 59.786443000000006 48.858039000000005 60.24387000000001 49.022336 C 60.70129800000001 49.182216000000004 61.08993800000001 49.379687000000004 61.40969000000001 49.615064000000004 L 61.47635000000001 49.615064000000004 L 61.47635000000001 48.276128 C 61.174359 48.120688 60.794828 47.98946 60.337401 47.88287 C 59.884418 47.771853 59.435852 47.716472 58.991748 47.716472 Z M 42.67749799999999 47.896305999999996 L 42.67749799999999 55.33719599999999 L 43.92961799999999 55.33719599999999 L 43.92961799999999 50.05483099999999 C 44.26269599999999 49.783930999999995 44.609109999999994 49.56419699999999 44.96883099999999 49.395439999999994 C 45.32855499999999 49.22223999999999 45.701771999999984 49.135507 46.08814299999999 49.135507 C 46.32795999999999 49.135507 46.53454499999999 49.146376999999994 46.70774299999999 49.168577 C 46.885384999999985 49.186377 47.067438999999986 49.217707 47.253962999999985 49.262107 L 47.32062299999998 49.262107 L 47.32062299999998 47.9764 C 47.12521799999998 47.945299999999996 46.97855899999998 47.92526 46.88085599999998 47.91646 C 46.78315599999998 47.90316 46.62562799999998 47.89631 46.40801699999998 47.89631 C 46.01276399999998 47.89631 45.62412399999998 47.98082 45.242196999999976 48.149525 C 44.86470799999998 48.31384499999999 44.427011999999976 48.595768 43.92961499999998 48.995467999999995 L 43.92961499999998 47.89631 Z M 90.00794299999998 47.896305999999996 L 92.99897499999999 55.33719599999999 L 94.25781199999999 55.33719599999999 L 97.26899799999998 47.896305999999996 L 95.95641699999999 47.896305999999996 L 93.67180199999999 53.818425 L 91.36703299999999 47.896305999999996 z M 109.99276999999998 47.896305999999996 L 111.57147999999998 47.896305999999996 L 113.66954999999999 50.70750399999999 L 115.77484999999999 47.896305999999996 L 117.24038999999999 47.896305999999996 L 114.31602 51.560165 L 117.24038999999999 55.337196 L 115.66166999999999 55.337196 L 113.54965999999999 52.479489 L 111.42472 55.337196 L 109.96589999999999 55.337196 L 112.87062999999999 51.626827999999996 z M 85.73120099999997 48.722612 C 86.39736099999998 48.722612 86.89269899999996 48.902387 87.21689899999997 49.262114 C 87.54550599999997 49.621834 87.71162299999997 50.130323 87.71609299999997 50.787603 L 83.45278699999997 50.787603 C 83.50608699999997 50.201383 83.73036699999997 49.710601 84.12561399999997 49.315341 C 84.52531399999997 48.920091 85.06060399999997 48.722612 85.73120099999997 48.722612 z M 105.69586999999997 48.722612 C 105.02526999999998 48.722612 104.48998999999998 48.920091 104.09028999999997 49.315341 C 103.69503999999996 49.710601 103.47075999999997 50.201383 103.41745999999996 50.787603 L 107.68076999999997 50.787603 C 107.67576999999997 50.130323 107.50996999999997 49.621834 107.18156999999997 49.262114 C 106.85736999999996 48.902387 106.36201999999996 48.722612 105.69586999999997 48.722612 z M 121.73675999999998 48.722612 C 121.06616999999997 48.722612 120.53134999999997 48.920091 120.13168999999998 49.315341 C 119.73643999999997 49.710601 119.51215999999998 50.201383 119.45885999999997 50.787603 L 123.72215999999997 50.787603 C 123.71715999999998 50.130323 123.55085999999997 49.621834 123.22244999999998 49.262114 C 122.89825999999998 48.902387 122.40288999999999 48.722612 121.73675999999998 48.722612 z M 52.79626099999997 51.433558 L 52.79626099999997 53.505266 C 52.48538799999997 53.745086 52.148083999999976 53.951667 51.783918999999976 54.124867 C 51.41975599999998 54.293624 51.01745399999998 54.378081 50.577790999999976 54.378081 C 50.04930999999998 54.378081 49.65663299999998 54.271374 49.399051999999976 54.058204 C 49.14147199999998 53.840594 49.01251199999998 53.518709 49.01251199999998 53.092372000000005 C 49.01251199999998 52.714892000000006 49.12377299999998 52.419807000000006 49.34582499999998 52.20663700000001 C 49.567876999999974 51.98903000000001 49.85840199999998 51.82923000000001 50.21812299999998 51.72708000000001 C 50.52011399999998 51.642680000000006 50.928728999999976 51.578230000000005 51.44388799999998 51.53381000000001 C 51.96348999999998 51.48941000000001 52.41433099999998 51.45581000000001 52.79626099999998 51.43355800000001 z M 98.16145 53.43912 L 99.753601 53.43912 L 99.753601 55.337196000000006 L 98.16145 55.337196000000006 Z M 103.51306 93.47802 C 103.64144 93.47802 103.75636999999999 93.48392 103.85826 93.49611 C 103.96218 93.50834 104.05688 93.52269 104.14248 93.539 L 104.14248 94.065066 L 104.11198 94.065066 C 104.04878000000001 94.046726 103.96634 94.028116 103.86445 94.009776 C 103.76256000000001 93.989396 103.67313 93.979286 103.59573 93.979286 C 103.34916 93.979286 103.16935000000001 94.034096 103.05727 94.144133 C 102.94721 94.252134 102.89242 94.448993 102.89242 94.734278 L 102.89242 94.850033 L 103.92853 94.850033 L 103.92853 95.333208 L 102.9105 95.333208 L 102.9105 98.264812 L 102.33638 98.264812 L 102.33638 95.33320800000001 L 101.94777 95.33320800000001 L 101.94777 94.85003300000001 L 102.33638 94.85003300000001 L 102.33638 94.73737 C 102.33638 94.331857 102.43695000000001 94.021129 102.63869000000001 93.805127 C 102.84042000000001 93.587088 103.13199000000002 93.478015 103.51305 93.478015 z M 71.800269 93.50851 L 72.37491 93.50851 L 72.37491 96.55897 L 74.034757 94.85003 L 74.759261 94.85003 L 73.172795 96.427195 L 74.87501599999999 98.264809 L 74.11744 98.264809 L 72.748014 96.76981 L 72.37491 97.12431000000001 L 72.37491 98.26480900000001 L 71.800269 98.26480900000001 z M 84.283744 93.50851 L 84.858386 93.50851 L 84.858386 95.207631 C 85.019368 95.07517700000001 85.190173 94.96717000000001 85.371533 94.88362000000001 C 85.552893 94.79804000000001 85.756675 94.755463 85.982865 94.755463 C 86.386341 94.755463 86.70451 94.910812 86.936812 95.22055 C 87.171154 95.530289 87.288212 95.966607 87.288212 96.531065 C 87.288212 96.81635 87.247762 97.07333299999999 87.166256 97.30156 C 87.086786 97.529789 86.978773 97.721333 86.84224400000001 97.87620199999999 C 86.69756400000001 98.037185 86.53848 98.15849399999999 86.365271 98.240004 C 86.192062 98.319484 86.00158 98.359377 85.79373000000001 98.359377 C 85.60014300000002 98.359377 85.43094900000001 98.335967 85.28626700000001 98.289097 C 85.14158700000002 98.244267 84.99899 98.183076 84.85838600000001 98.105646 L 84.82169600000002 98.264809 L 84.28374400000001 98.264809 z M 68.667643 93.713149 L 69.474312 93.713149 L 71.131059 98.264809 L 70.48562 98.264809 L 70.039653 96.99615299999999 L 68.071297 96.99615299999999 L 67.624813 98.26480899999999 L 67.01038 98.26480899999999 Z M 69.055733 94.241799 L 68.254232 96.476288 L 69.853101 96.476288 z M 97.32325800000001 94.755463 C 97.78379100000001 94.755463 98.13815400000001 94.890073 98.38675900000001 95.15905500000001 C 98.63740200000001 95.42803900000001 98.76296400000001 95.81006500000001 98.76296400000001 96.30523900000001 L 98.76296400000001 96.61684800000002 L 96.24735500000001 96.61684800000002 C 96.24735500000001 96.82673600000003 96.27875500000002 97.01029500000001 96.34192500000002 97.16720200000002 C 96.40509500000002 97.32207000000001 96.49181900000002 97.44924100000001 96.60185700000002 97.54909000000002 C 96.70782000000003 97.64690000000002 96.83338100000002 97.72032200000002 96.97806200000002 97.76923200000002 C 97.12478000000003 97.81814200000002 97.28547300000002 97.84261200000002 97.46072000000002 97.84261200000002 C 97.69302400000002 97.84261200000002 97.92607800000002 97.79685200000002 98.16041900000002 97.70515200000001 C 98.39679800000002 97.61141200000002 98.56544800000002 97.51989400000001 98.66529700000002 97.43023400000001 L 98.69578700000002 97.43023400000001 L 98.69578700000002 98.05655200000001 C 98.50220100000003 98.138062 98.30427900000002 98.20617100000001 98.10254100000003 98.26119100000001 C 97.90080300000002 98.316201 97.68903600000003 98.34387100000001 97.46692100000003 98.34387100000001 C 96.90042600000002 98.34387100000001 96.45827500000003 98.191164 96.14038700000003 97.885501 C 95.82249700000003 97.57780000000001 95.66341300000003 97.14151100000001 95.66341300000003 96.577054 C 95.66341300000003 96.01871 95.81557500000004 95.575497 96.11920000000003 95.24741900000001 C 96.42486300000003 94.919341 96.82605000000004 94.75546000000001 97.32326000000003 94.75546000000001 z M 112.54869000000001 94.755463 C 112.91752000000001 94.755463 113.19846000000001 94.86666000000001 113.39205000000001 95.08877600000001 C 113.58561000000002 95.31089000000001 113.68247000000001 95.63066700000002 113.68247000000001 96.04840700000001 L 113.68247000000001 98.26480900000001 L 113.10782 98.26480900000001 L 113.10782 96.32074200000001 C 113.10782 96.163835 113.09882 96.01698800000001 113.08042 95.880458 C 113.06212000000001 95.741892 113.02802 95.633887 112.97913 95.556447 C 112.92823 95.47085700000001 112.85479 95.407545 112.75899 95.36679500000001 C 112.66319 95.32400500000001 112.53923 95.302715 112.3864 95.302715 C 112.2295 95.302715 112.0651 95.34154500000001 111.89393 95.418987 C 111.72274999999999 95.49641700000001 111.55888 95.594865 111.40196999999999 95.715093 L 111.40196999999999 98.264808 L 110.82731999999999 98.264808 L 110.82731999999999 94.850029 L 111.40196999999999 94.850029 L 111.40196999999999 95.22933400000001 C 111.58129999999998 95.08057900000001 111.76696999999999 94.96458500000001 111.95852 94.88103500000001 C 112.15007 94.79748500000001 112.34693999999999 94.75546200000001 112.54866999999999 94.75546200000001 z M 76.64803500000001 94.767863 C 76.888489 94.767863 77.097586 94.788093 77.27487 94.828843 C 77.454192 94.867563 77.609024 94.934601 77.73944100000001 95.030381 C 77.86781900000001 95.124121 77.96572300000001 95.245427 78.03296300000001 95.39418300000001 C 78.10021300000001 95.54293900000002 78.13373200000001 95.72756100000001 78.13373200000001 95.94763800000001 L 78.13373200000001 98.26480900000001 L 77.56219100000001 98.26480900000001 L 77.56219100000001 97.901007 C 77.51125100000002 97.935647 77.44207100000001 97.98459700000001 77.35445100000001 98.047768 C 77.26887100000002 98.10889800000001 77.18481400000002 98.15733200000001 77.10330400000001 98.194012 C 77.007534 98.240872 76.89791100000001 98.279712 76.77360800000001 98.310284 C 76.64930700000001 98.342894 76.50352300000002 98.359374 76.336426 98.359374 C 76.028726 98.359374 75.768009 98.257225 75.554045 98.053449 C 75.340082 97.849675 75.233134 97.590022 75.233134 97.274169 C 75.233134 97.015375 75.28794400000001 96.806794 75.39798200000001 96.64785 C 75.51005800000001 96.486868 75.66914200000001 96.360245 75.87495500000001 96.268545 C 76.08280600000002 96.176855 76.33234800000001 96.114594 76.62374700000001 96.08199400000001 C 76.91514600000001 96.049384 77.22799900000001 96.02491400000001 77.56219100000001 96.00861400000001 L 77.56219100000001 95.92024400000001 C 77.56219100000001 95.78982800000001 77.53826100000002 95.68182300000001 77.49139100000001 95.59623300000001 C 77.446561 95.51064300000002 77.38164400000001 95.44308800000002 77.29605400000001 95.39417800000001 C 77.21454400000002 95.34730800000001 77.11664600000002 95.31590800000001 77.00253200000002 95.299608 C 76.88841800000002 95.283298 76.76923400000001 95.27480800000001 76.64493100000001 95.27480800000001 C 76.49413700000001 95.27480800000001 76.32652200000001 95.29555800000001 76.14108600000002 95.33629800000001 C 75.95565100000002 95.37501800000001 75.76358900000001 95.43194800000002 75.56592700000002 95.50734700000001 L 75.53543700000002 95.50734700000001 L 75.53543700000002 94.92340300000001 C 75.64751300000002 94.89283300000001 75.80978600000002 94.85931300000001 76.02171200000002 94.82263400000001 C 76.23363800000003 94.785964 76.44221700000003 94.76785400000001 76.64803100000002 94.76785400000001 z M 89.351135 94.767863 C 89.59159 94.767863 89.800687 94.788093 89.97797 94.828843 C 90.157293 94.867563 90.31212599999999 94.934601 90.442542 95.030381 C 90.57092 95.124121 90.668814 95.245427 90.736064 95.39418300000001 C 90.803314 95.54293900000002 90.836833 95.72756100000001 90.836833 95.94763800000001 L 90.836833 98.26480900000001 L 90.265291 98.26480900000001 L 90.265291 97.901007 C 90.21435100000001 97.935647 90.145172 97.98459700000001 90.057552 98.047768 C 89.97197200000001 98.10889800000001 89.888431 98.15733200000001 89.806921 98.194012 C 89.711151 98.240872 89.601012 98.279712 89.476709 98.310284 C 89.352405 98.342894 89.206622 98.359374 89.039526 98.359374 C 88.731826 98.359374 88.471109 98.257225 88.257145 98.053449 C 88.04318099999999 97.849675 87.936235 97.590022 87.936235 97.274169 C 87.936235 97.015375 87.991565 96.806794 88.101599 96.64785 C 88.21367599999999 96.486868 88.372242 96.360245 88.57805599999999 96.268545 C 88.78590599999998 96.176855 89.03544899999999 96.114594 89.32684699999999 96.08199400000001 C 89.61824599999998 96.049384 89.93109999999999 96.02491400000001 90.26529099999999 96.00861400000001 L 90.26529099999999 95.92024400000001 C 90.26529099999999 95.78982800000001 90.24188099999999 95.68182300000001 90.195011 95.59623300000001 C 90.15018099999999 95.51064300000002 90.08474799999999 95.44308800000002 89.999158 95.39417800000001 C 89.917648 95.34730800000001 89.82026599999999 95.31590800000001 89.70615199999999 95.299608 C 89.59203699999999 95.283298 89.47285399999998 95.27480800000001 89.34855099999999 95.27480800000001 C 89.197758 95.27480800000001 89.02962499999998 95.29555800000001 88.84418899999999 95.33629800000001 C 88.65875399999999 95.37501800000001 88.46720899999998 95.43194800000002 88.26954799999999 95.50734700000001 L 88.23905799999999 95.50734700000001 L 88.23905799999999 94.92340300000001 C 88.35113499999999 94.89283300000001 88.51288899999999 94.85931300000001 88.72481699999999 94.82263400000001 C 88.93674199999998 94.785964 89.145322 94.76785400000001 89.35113499999999 94.76785400000001 z M 108.23525000000001 94.767863 C 108.47571 94.767863 108.68481000000001 94.788093 108.86209000000001 94.828843 C 109.04142 94.867563 109.19624 94.934601 109.32666 95.030381 C 109.45504000000001 95.124121 109.55237000000001 95.245427 109.61967 95.39418300000001 C 109.68687 95.54293900000002 109.72095 95.72756100000001 109.72095 95.94763800000001 L 109.72095 98.26480900000001 L 109.14941 98.26480900000001 L 109.14941 97.901007 C 109.09851 97.935647 109.02927 97.98459700000001 108.94167 98.047768 C 108.85607 98.10889800000001 108.77254 98.15733200000001 108.69104 98.194012 C 108.59524 98.240872 108.48462 98.279712 108.36031 98.310284 C 108.23601 98.342894 108.09073 98.359374 107.92365 98.359374 C 107.61594 98.359374 107.35471 98.257225 107.14075 98.053449 C 106.92679 97.849675 106.81984 97.590022 106.81984 97.274169 C 106.81984 97.015375 106.87514 96.806794 106.9852 96.64785 C 107.09728000000001 96.486868 107.25636 96.360245 107.46217 96.268545 C 107.67002 96.176855 107.91957000000001 96.114594 108.21097 96.08199400000001 C 108.50237 96.049384 108.81522 96.02491400000001 109.14941 96.00861400000001 L 109.14941 95.92024400000001 C 109.14941 95.78982800000001 109.12601000000001 95.68182300000001 109.07911 95.59623300000001 C 109.03431 95.51064300000002 108.96886 95.44308800000002 108.88326 95.39417800000001 C 108.80176 95.34730800000001 108.70436000000001 95.31590800000001 108.59025000000001 95.299608 C 108.47614000000002 95.283298 108.35644 95.27480800000001 108.23213000000001 95.27480800000001 C 108.08134000000001 95.27480800000001 107.91320000000002 95.29555800000001 107.72777 95.33629800000001 C 107.54233 95.37501800000001 107.35079 95.43194800000002 107.15313 95.50734700000001 L 107.12263 95.50734700000001 L 107.12263 94.92340300000001 C 107.2347 94.89283300000001 107.39698 94.85931300000001 107.60891 94.82263400000001 C 107.82083999999999 94.785964 108.02941 94.76785400000001 108.23522 94.76785400000001 z M 79.732601 94.85003300000001 L 80.462789 94.85003300000001 L 80.462789 95.721298 L 79.732601 95.721298 z M 91.919454 94.85003300000001 L 92.493579 94.85003300000001 L 92.493579 96.79410100000001 C 92.493579 96.96731000000001 92.50157899999999 97.11628200000001 92.51786899999999 97.24058500000001 C 92.53416899999999 97.36285000000001 92.56875899999999 97.468191 92.62173899999999 97.555811 C 92.67675899999999 97.645471 92.74857599999999 97.709872 92.83619599999999 97.75063200000001 C 92.92381599999999 97.79138200000001 93.05098999999998 97.81212200000002 93.21808499999999 97.81212200000002 C 93.366841 97.81212200000002 93.52911299999998 97.77380200000002 93.70436 97.69636600000001 C 93.88164499999999 97.618936 94.046589 97.51997100000001 94.19941999999999 97.39974400000001 L 94.19941999999999 94.85002800000001 L 94.77406199999999 94.85002800000001 L 94.77406199999999 98.264807 L 94.19942 98.264807 L 94.19942 97.885502 C 94.00583300000001 98.03833300000001 93.820666 98.155392 93.643382 98.236902 C 93.466097 98.318412 93.2703 98.359375 93.056337 98.359375 C 92.697693 98.359375 92.418363 98.250302 92.218662 98.032263 C 92.01896199999999 97.812185 91.919456 97.490283 91.919456 97.066431 z M 99.634229 94.85003300000001 L 100.20887 94.85003300000001 L 100.20887 95.35439500000001 C 100.4371 95.17099800000001 100.63769 95.04170500000001 100.8109 94.966305 C 100.98615000000001 94.88886500000001 101.16439 94.85003300000001 101.34575000000001 94.85003300000001 C 101.44565000000001 94.85003300000001 101.51799000000001 94.85323300000002 101.56279 94.859333 C 101.60759 94.863433 101.67515 94.872483 101.76485000000001 94.886723 L 101.76485000000001 95.47686800000001 L 101.73385 95.47686800000001 C 101.64825 95.45648800000001 101.56472000000001 95.44217800000001 101.48322 95.43397800000001 C 101.40372 95.423838 101.30903 95.41898800000001 101.199 95.41898800000001 C 101.02171 95.41898800000001 100.8504 95.45837800000001 100.68534 95.537844 C 100.52028 95.615284 100.36171 95.71636500000001 100.20888 95.84066800000001 L 100.20888 98.26480900000001 L 99.634239 98.26480900000001 z M 104.50628 94.85003300000001 L 105.08092 94.85003300000001 L 105.08092 95.35439500000001 C 105.30915 95.17099800000001 105.50975000000001 95.04170500000001 105.68295 94.966305 C 105.85820000000001 94.88886500000001 106.03696000000001 94.85003300000001 106.21832 94.85003300000001 C 106.31812000000001 94.85003300000001 106.39005 94.85323300000002 106.43485000000001 94.859333 C 106.47965 94.863433 106.54720000000002 94.872483 106.63690000000001 94.886723 L 106.63690000000001 95.47686800000001 L 106.60640000000001 95.47686800000001 C 106.52080000000001 95.45648800000001 106.43727000000001 95.44217800000001 106.35577 95.43397800000001 C 106.27627000000001 95.423838 106.18159 95.41898800000001 106.07155 95.41898800000001 C 105.89426 95.41898800000001 105.72295 95.45837800000001 105.55789 95.537844 C 105.39283 95.615284 105.23374 95.71636500000001 105.08091 95.84066800000001 L 105.08091 98.26480900000001 L 104.50627 98.26480900000001 z M 114.55011 94.85003300000001 L 117.21248 94.85003300000001 L 117.21248 95.25982800000001 L 115.21364 97.77853700000001 L 117.26468 97.77853700000001 L 117.26468 98.26481200000002 L 114.50774 98.26481200000002 L 114.50774 97.84003200000002 L 116.49728 95.33010700000003 L 114.55011 95.33010700000003 z M 97.292769 95.22933800000001 C 96.98506900000001 95.22933800000001 96.73926100000001 95.319798 96.555863 95.50115600000001 C 96.374504 95.68251500000001 96.271805 95.9081 96.247355 96.17708400000001 L 98.20330799999999 96.17708400000001 C 98.201308 95.87549600000001 98.125188 95.64192600000001 97.97438199999999 95.47686900000001 C 97.82562599999999 95.311813 97.59843299999999 95.22933800000001 97.29276899999999 95.22933800000001 z M 85.84230600000001 95.30271800000001 C 85.67520900000001 95.30271800000001 85.506532 95.33942800000001 85.33536000000001 95.41278900000002 C 85.16418900000001 95.48410900000002 85.005104 95.57669400000002 84.85838600000001 95.69080800000002 L 84.85838600000001 97.64676100000001 C 85.02140600000001 97.72011100000002 85.16081400000002 97.77171000000001 85.276965 97.80024000000002 C 85.395155 97.82877000000002 85.52870200000001 97.84262000000001 85.677458 97.84262000000001 C 85.995346 97.84262000000001 86.243827 97.73886200000001 86.423149 97.531011 C 86.604507 97.321122 86.695483 96.99284200000001 86.695483 96.546575 C 86.695483 96.139024 86.627923 95.830422 86.49342899999999 95.62053300000001 C 86.358937 95.408607 86.14185499999999 95.30272300000001 85.842306 95.30272300000001 z M 77.56219100000001 96.47318900000002 C 77.38694400000001 96.48337900000001 77.17997500000001 96.49879900000002 76.94155700000002 96.51917900000002 C 76.70517800000002 96.53955900000003 76.51788400000002 96.56933900000003 76.37931700000001 96.60805900000003 C 76.21425900000001 96.65492900000002 76.08071200000002 96.72835000000002 75.97882500000001 96.82820000000002 C 75.87694000000002 96.92601000000002 75.82586300000001 97.06116700000003 75.82586300000001 97.23437700000002 C 75.82586300000001 97.43000100000002 75.88492300000001 97.57791100000003 76.00311300000001 97.67776100000002 C 76.12130200000001 97.77558100000002 76.30167200000001 97.82452200000002 76.544165 97.82452200000002 C 76.74590300000001 97.82452200000002 76.930525 97.78568200000002 77.09762 97.70825000000002 C 77.26471500000001 97.62878000000002 77.419548 97.53406800000002 77.56219100000001 97.42403000000002 z M 90.26529100000002 96.47318900000002 C 90.09004400000002 96.48337900000001 89.88359000000001 96.49879900000002 89.64517400000003 96.51917900000002 C 89.40879300000003 96.53955900000003 89.22098500000003 96.56933900000003 89.08241800000003 96.60805900000003 C 88.91736000000003 96.65492900000002 88.78381200000003 96.72835000000002 88.68192500000004 96.82820000000002 C 88.58004100000004 96.92601000000002 88.52948000000004 97.06116700000003 88.52948000000004 97.23437700000002 C 88.52948000000004 97.43000100000002 88.58854000000004 97.57791100000003 88.70673000000004 97.67776100000002 C 88.82492000000003 97.77558100000002 89.00477300000004 97.82452200000002 89.24726600000004 97.82452200000002 C 89.44900200000004 97.82452200000002 89.63362400000004 97.78568200000002 89.80072000000004 97.70825000000002 C 89.96781600000004 97.62878000000002 90.12264800000004 97.53406800000002 90.26529100000005 97.42403000000002 z M 109.14941000000002 96.47318900000002 C 108.97416000000001 96.48337900000001 108.76720000000002 96.49879900000002 108.52878000000001 96.51917900000002 C 108.29240000000001 96.53955900000003 108.10511000000001 96.56933900000003 107.96654000000001 96.60805900000003 C 107.80148000000001 96.65492900000002 107.66793000000001 96.72835000000002 107.56604000000002 96.82820000000002 C 107.46413000000001 96.92601000000002 107.41308000000002 97.06116700000003 107.41308000000002 97.23437700000002 C 107.41308000000002 97.43000100000002 107.47218000000002 97.57791100000003 107.59033000000002 97.67776100000002 C 107.70851000000002 97.77558100000002 107.88889000000002 97.82452200000002 108.13138000000002 97.82452200000002 C 108.33312000000002 97.82452200000002 108.51774000000002 97.78568200000002 108.68484000000002 97.70825000000002 C 108.85193000000002 97.62878000000002 109.00676000000003 97.53406800000002 109.14941000000002 97.42403000000002 z M 79.73260100000002 97.39354600000001 L 80.46278900000001 97.39354600000001 L 80.46278900000001 98.26481100000001 L 79.73260100000002 98.26481100000001 z" stroke-linecap="round" />
</g>
</svg>